<?xml version="1.0" encoding="utf-8"?>
<!-- Generator: Adobe Illustrator 19.2.1, SVG Export Plug-In . SVG Version: 6.00 Build 0)  -->
<svg version="1.1" id="Слой_1" xmlns="http://www.w3.org/2000/svg" xmlns:xlink="http://www.w3.org/1999/xlink" x="0px" y="0px"
	 width="320px" height="180px" viewBox="0 0 320 180" enable-background="new 0 0 320 180" xml:space="preserve">
<radialGradient id="SVGID_1_" cx="164.08" cy="143.6667" r="228.2534" gradientTransform="matrix(1 2.749416e-003 -1.747780e-003 0.6357 0.2511 51.8883)" gradientUnits="userSpaceOnUse">
	<stop  offset="0" style="stop-color:#B673D0"/>
	<stop  offset="9.158474e-002" style="stop-color:#A065BC"/>
	<stop  offset="0.2449" style="stop-color:#8251A0"/>
	<stop  offset="0.4064" style="stop-color:#6A428A"/>
	<stop  offset="0.5777" style="stop-color:#59377A"/>
	<stop  offset="0.7652" style="stop-color:#4F3071"/>
	<stop  offset="1" style="stop-color:#4C2E6E"/>
</radialGradient>
<rect fill="url(#SVGID_1_)" width="320" height="180"/>
<g opacity="0.2">
	<rect width="320" height="180"/>
	<rect x="73.3" y="50.1" fill="#FFFFFF" width="2.5" height="117.4"/>
	<rect x="62" y="54.2" fill="#C9C9C9" width="7.3" height="3.9"/>
	<g>
		<rect x="78.3" y="63" fill="#E27C3E" width="12.2" height="3.9"/>
		<rect x="62" y="63" fill="#C9C9C9" width="7.3" height="3.9"/>
	</g>
	<g>
		<rect x="62" y="114.6" fill="#C9C9C9" width="7.3" height="3.9"/>
		<rect x="78.3" y="114.6" fill="#E27C3E" width="12.2" height="3.9"/>
	</g>
	<g>
		<rect x="62" y="123.2" fill="#C9C9C9" width="7.3" height="3.9"/>
		<rect x="78.3" y="123.2" fill="#E27C3E" width="12.2" height="3.9"/>
	</g>
	<g>
		<rect x="62" y="148.9" fill="#C9C9C9" width="7.3" height="3.9"/>
		<rect x="62" y="157.5" fill="#C9C9C9" width="7.3" height="3.9"/>
		<rect x="78.3" y="148.9" fill="#E27C3E" width="12.2" height="3.9"/>
	</g>
	<g>
		<rect x="62" y="131.8" fill="#C9C9C9" width="7.3" height="3.9"/>
		<rect x="83.2" y="131.8" fill="#77B3D4" width="26.6" height="3.9"/>
		<rect x="114.2" y="131.8" fill="#1ABC9C" width="30.8" height="3.9"/>
		<rect x="149.3" y="131.8" fill="#F39C12" width="19.1" height="3.9"/>
	</g>
	<g>
		<rect x="62" y="71.6" fill="#C9C9C9" width="7.3" height="3.9"/>
		<rect x="82.8" y="71.6" fill="#77B3D4" width="12.2" height="3.9"/>
		<rect x="98.7" y="71.6" fill="#7D3D11" width="19.2" height="3.9"/>
	</g>
	<g>
		<rect x="62" y="80.2" fill="#C9C9C9" width="7.3" height="3.9"/>
		<rect x="154.1" y="80.2" fill="#1ABC9C" width="19.2" height="3.9"/>
		<rect x="82.8" y="80.2" fill="#89C0C7" width="25.5" height="3.9"/>
		<rect x="110.8" y="80.2" fill="#F39C12" width="40" height="3.9"/>
	</g>
	<g>
		<rect x="62" y="106" fill="#C9C9C9" width="7.3" height="3.9"/>
		<rect x="82.8" y="106" fill="#D0D7D8" width="40" height="3.9"/>
		<rect x="129.3" y="106" fill="#231F20" width="24.8" height="3.9"/>
		<rect x="159.1" y="106" fill="#89C0C7" width="24.8" height="3.9"/>
	</g>
	<g>
		<rect x="62" y="97.4" fill="#C9C9C9" width="7.3" height="3.9"/>
		<rect x="82.8" y="97.4" fill="#77B3D4" width="40" height="3.9"/>
		<rect x="126.9" y="97.4" fill="#FADE85" width="40" height="3.9"/>
	</g>
	<g>
		<rect x="62" y="140.4" fill="#C9C9C9" width="7.3" height="3.9"/>
		<rect x="83.6" y="140.4" fill="#E74C3C" width="40" height="3.9"/>
		<rect x="130.8" y="140.4" fill="#89C0C7" width="40" height="3.9"/>
	</g>
	<g>
		<rect x="62" y="88.8" fill="#C9C9C9" width="7.3" height="3.9"/>
		<rect x="82.8" y="88.8" fill="#FFA200" width="19.2" height="3.9"/>
		<rect x="106.9" y="88.8" fill="#FFD54E" width="40" height="3.9"/>
	</g>
	<g>
		<polygon fill="#FFFFFF" points="82.9,53.6 82.3,53.1 79.5,56.1 79.5,56.1 79.5,56.1 82.3,59.1 82.9,58.6 80.6,56.1 		"/>
		<rect x="86.1" y="54.2" fill="#FFFFFF" width="7.3" height="3.9"/>
		<polygon fill="#FFFFFF" points="96.7,53.6 97.2,53.1 100.1,56.1 100.1,56.1 100.1,56.1 97.2,59.1 96.7,58.6 99,56.1 		"/>
	</g>
	<g>
		<polygon fill="#FFFFFF" points="82.9,157 82.3,156.4 79.5,159.5 79.5,159.5 79.5,159.5 82.3,162.5 82.9,161.9 80.6,159.5 		"/>
		<polygon fill="#FFFFFF" points="93.5,157 94.1,156.4 96.9,159.5 96.9,159.5 96.9,159.5 94.1,162.5 93.5,161.9 95.9,159.5 		"/>
		<polygon fill="#FFFFFF" points="86,162.2 85.6,161.8 90.4,156.7 90.8,157.2 		"/>
	</g>
</g>
<g opacity="0.5">
	<defs>
		<rect id="SVGID_2_" opacity="0.5" width="320" height="180"/>
	</defs>
	<clipPath id="SVGID_3_">
		<use xlink:href="#SVGID_2_"  overflow="visible"/>
	</clipPath>
	<circle opacity="0.15" clip-path="url(#SVGID_3_)" fill="#FFFFFF" cx="50.1" cy="147.7" r="13.7"/>
	<circle opacity="0.15" clip-path="url(#SVGID_3_)" fill="#FFFFFF" cx="298.9" cy="15.5" r="8.8"/>
	<circle opacity="0.15" clip-path="url(#SVGID_3_)" fill="#FFFFFF" cx="241.4" cy="140.3" r="5.3"/>
	<circle opacity="0.15" clip-path="url(#SVGID_3_)" fill="#FFFFFF" cx="292.2" cy="89.5" r="17.8"/>
	<circle opacity="0.15" clip-path="url(#SVGID_3_)" fill="#FFFFFF" cx="17.4" cy="123" r="3"/>
	<circle opacity="0.15" clip-path="url(#SVGID_3_)" fill="#FFFFFF" cx="67.7" cy="110.3" r="6.7"/>
	<circle opacity="0.15" clip-path="url(#SVGID_3_)" fill="#FFFFFF" cx="314.7" cy="182.7" r="59.7"/>
</g>
<g>
	<g>
		<polygon fill="#F8B77C" points="212.5,110 204.7,110 203.8,115.2 204.7,120.6 212.5,120.6 		"/>
		<rect x="196.9" y="110" fill="#FCC287" width="7.8" height="10.6"/>
	</g>
	<g>
		<g>
			<path fill="#509D8E" d="M242.2,147.7c4.6,7.5,4.8,18.9,0.6,33.3h18.4c4.2-17.4,2.9-31.7-3.8-42.7c-8.6-14-22.9-17.1-27.1-17.7
				l-2.6,17.6C229.9,138.6,237.7,140.2,242.2,147.7z"/>
		</g>
		<g>
			<g>
				<path fill="#5AAA9C" d="M181.8,120.2c-5.3,0-9.6,3.9-9.6,10.9l2.7,48.9h29.9l0.8-26.8l-0.8-33H181.8z"/>
			</g>
			<g>
				<path fill="#509D8E" d="M237.3,131.1c0-7-4.3-10.9-9.6-10.9h-23.1V180h29.7L237.3,131.1z"/>
			</g>
		</g>
		<g>
			<polygon fill="#529285" points="191.8,139.7 201.2,129.6 189,120.2 183.4,120.2 			"/>
		</g>
		<g>
			<polygon fill="#529285" points="217.8,139.7 208.4,129.5 220.8,120.2 226.2,120.2 			"/>
		</g>
		<g>
			<polygon fill="#F9F9F9" points="204.7,119.3 203.8,127.4 204.7,138.4 204.7,138.5 208.4,129.5 220.7,120.2 			"/>
			<polygon fill="#FFFFFF" points="189,120.2 201.2,129.6 204.7,138.4 204.7,119.3 			"/>
		</g>
	</g>
	<g>
		<g>
			<path fill="#F8B77C" d="M242.9,80c-0.1,2-0.8,4.4-2.8,4.3l0,0c-2-0.1-3.5-1.8-3.4-3.8l0.7-11.9c0.1-2,1.8-3.5,3.8-3.4l0,0
				c2,0.1,3.7,1.8,3.4,3.8C244.1,71.7,243.1,74.6,242.9,80z"/>
		</g>
		<g>
			<path fill="#FCC287" d="M166.7,80c0.1,2,0.8,4.4,2.8,4.3l0,0c2-0.1,3.5-1.8,3.4-3.8l-0.7-11.9c-0.1-2-1.8-3.5-3.8-3.4l0,0
				c-2,0.1-3.7,1.8-3.4,3.8C165.5,71.7,166.5,74.6,166.7,80z"/>
		</g>
		<g>
			<g>
				<path fill="#FCC287" d="M237.2,85.4c0,9.4-7.6,17-16.9,17h-30.9c-9.3,0-16.9-7.6-16.9-17l-1.7-39.4c0-9.4,7.6-17,16.9-17h34.3
					c9.3,0,16.9,7.6,16.9,17L237.2,85.4z"/>
			</g>
			<g>
				<g>
					<path fill="#F8B77C" d="M221.8,28.9h-17.1v73.4h15.4c9.3,0,16.9-7.6,16.9-17l1.7-39.4C238.7,36.5,231.1,28.9,221.8,28.9z"/>
				</g>
			</g>
		</g>
		<g>
			<g>
				<path fill="#C55A28" d="M189.7,88.2c-9.7,1.4-17-3.8-17-13.6l-0.8-28.1c-0.7,1.9-1.1,4-1.1,8.7L169,97c0,7.3,8,15.3,17.8,15.3
					h17.9l0.8-10.4l-0.8-15.5C195.4,86.5,193.4,87.7,189.7,88.2z"/>
			</g>
			<g>
				<path fill="#BD5328" d="M238.9,55.2c0-4.7-0.4-6.8-1.1-8.7l-0.8,28.1c0,9.9-7.2,15-17,13.6c-3.8-0.5-5.7-1.7-15.1-1.7
					c-0.1,0-0.1,0-0.2,0v25.9h18.2c9.8,0,17.8-8,17.8-15.3L238.9,55.2z"/>
			</g>
		</g>
		<g>
			<g>
				<path fill="#F8B77C" d="M205.1,97.7c-4.9,0-9.9-2.5-9.6-3.3c0.3-0.7,1.1-1.1,1.8-0.8l0,0c0.1,0,7.6,2.8,15,0
					c0.7-0.3,1.5,0.1,1.8,0.8C214.4,95.1,210.2,97.7,205.1,97.7z"/>
			</g>
		</g>
		<g>
			<g>
				<path fill="#B24E2A" d="M214.7,61.6c7.6-3.3,15.2,0,15.3,0c1.3,0.5,3-3.5,1.7-4c-0.4-0.2-9.6-5-19.3-1.2
					C211.1,56.9,213.4,62.1,214.7,61.6z"/>
			</g>
		</g>
		<g>
			<g>
				<ellipse fill="#4E2C14" cx="222.6" cy="66.7" rx="3.1" ry="3.1"/>
			</g>
			<g>
				<ellipse fill="#F7D8BA" cx="223.4" cy="66" rx="1" ry="1"/>
			</g>
		</g>
		<g>
			<g>
				<path fill="#BD5328" d="M198.2,60.1c-11-4.7-21.9-0.1-22,0c-1.9,0.8-4.3-5-2.4-5.8c0.6-0.2,13.9-7.3,27.8-1.7
					C203.4,53.3,200.1,60.9,198.2,60.1z"/>
			</g>
		</g>
		<g>
			<g>
				<path fill="#FCC287" d="M198.1,84.6c0,1.9,3.1,3.4,6.7,3.4l-0.2-37.7C202.2,53.2,198.1,84.6,198.1,84.6z"/>
			</g>
			<g>
				<path fill="#F8B77C" d="M208.3,63.2c-1.4-8.1-2.5-12-3.6-12.9V88c0.1,0,0.1,0,0.2,0c3.7,0,6.7-1.5,6.7-3.4
					C211.5,84.6,210.3,74.3,208.3,63.2z"/>
			</g>
		</g>
		<g>
			<ellipse fill="#FCC287" cx="199.3" cy="85.8" rx="2.2" ry="1.7"/>
		</g>
		<g>
			<ellipse fill="#F8B77C" cx="210.3" cy="85.8" rx="2.2" ry="1.7"/>
		</g>
		<g>
			<g>
				<path fill="#C55A28" d="M191,15.4c-14.2,3.4-11.5,14.5-11.5,14.5c-1.7-2.9-10.4-3.9-11.9,6.3C166,46.8,170.9,55,170.9,55
					s1.1,0.6,1.6-5.4c0-15.6,9.3-7.2,9.3-7.2s5.1-15.1,20.5-2.6c0.8,0.6,1.6,1.3,2.4,1.9l0.8-15.3l-0.8-12.2
					C200.6,13.9,196.1,14.2,191,15.4z"/>
			</g>
			<g>
				<path fill="#BD5328" d="M238.9,18.9c-4.6,16.3-12.6-2.8-34.2-4.7v27.5C251.2,77.4,247.6,24,238.9,18.9z"/>
			</g>
		</g>
		<g>
			<g>
				<ellipse fill="#4E2C14" cx="186.6" cy="66.3" rx="4.4" ry="4.4"/>
			</g>
			<g>
				<ellipse fill="#F7D8BA" cx="187.7" cy="65.3" rx="1.5" ry="1.5"/>
			</g>
		</g>
	</g>
	<circle opacity="0.3" fill="#D9EDEF" cx="187.1" cy="67.7" r="16.6"/>
	<g>
		<path fill="none" d="M193,53.8c-7.6-3.4-16.5-0.4-20.7,6.6c-3.4,8.2,0.3,17.7,8.5,21.3c7.6,3.4,16.5,0.4,20.7-6.6
			C204.9,66.9,201.1,57.4,193,53.8z"/>
		<path fill="#4E6F83" d="M194,51.7c-8.3-3.7-17.9,0.1-21.6,8.3c0,0.1-0.1,0.2-0.1,0.3c4.2-7,13-10,20.7-6.6
			c8.2,3.6,11.9,13.1,8.5,21.3c0.3-0.6,0.6-1.1,0.9-1.7C206,65,202.3,55.4,194,51.7z"/>
		<path fill="#4E6F83" d="M179.1,85.3c-10.2-4.5-14.9-16.5-10.4-26.8c-0.4,0.6-0.7,1.3-1,1.9c-4,9.1-0.8,19.7,7.2,25.1l-9.5,21.4
			l3.4,1.5L179.1,85.3l3.4,1.6l-0.8,1.7C191.1,90.7,201,86,205,77c0,0,0-0.1,0-0.1C199.9,85.8,188.7,89.6,179.1,85.3z"/>
		<path fill="#3C5568" d="M195.6,48c-10.3-4.6-22.3,0.1-26.9,10.4c0,0,0,0.1,0,0.1c-4.5,10.3,0.2,22.3,10.4,26.8
			c9.6,4.3,20.8,0.5,25.9-8.4c0.4-0.6,0.7-1.3,1-1.9C210.6,64.6,205.9,52.6,195.6,48z M202.4,73.3c-0.3,0.6-0.6,1.2-0.9,1.7
			c-4.2,7-13,10-20.7,6.6c-8.2-3.6-11.9-13.1-8.5-21.3c0-0.1,0.1-0.2,0.1-0.3c3.7-8.3,13.3-12,21.6-8.3
			C202.3,55.4,206,65,202.4,73.3z"/>
		<polygon fill="#3C5568" points="179.1,85.3 168.8,108.5 168.8,108.5 172.3,110.1 181.8,88.6 183,86.2 		"/>
	</g>
	<g>
		<path fill="#F8B77C" d="M168.4,116.1l2.8,1.3c0.9,0.4,1.9,0.1,2.3-0.8c0.3-0.6,0.2-1.3-0.2-1.8c0,0,0,0,0,0c0-0.9,0.9-0.7,0.9-0.7
			c0.9,0.4,1.9,0.1,2.3-0.8c0.4-0.8,0.1-1.7-0.6-2.2c0,0,0,0,0,0c-0.3-0.8,0.6-0.7,0.6-0.7s0,0,0,0c0.8,0.3,1.7-0.1,2.1-0.9
			c0.3-0.7,0.1-1.5-0.4-2c0,0,0,0,0,0c-0.5-0.8,0.4-1.1,0.4-1.1s0,0,0,0c0.6-0.1,1.1-0.4,1.3-1c0.4-0.9,0.1-1.9-0.8-2.3
			c-1.4-0.9-0.1-1.7-0.1-1.7l0,0c0.3-0.2,0.6-0.4,0.8-0.8c0.4-0.9,0.1-1.9-0.8-2.3l-2.6-1.3c-9.7-6-9.9-2-12.4-1.5
			c-2.5,0.6-11.3,15.3-12.4,17.6c7.7,3.4,4.2-0.1,6,3C158.7,118.6,165.9,115.3,168.4,116.1z"/>
		<path fill="#5AAA9C" d="M167.7,116.7c-4.2,6.4-5.4,10.5-6.2,15c-1.8,9.3,13.1-8.1,13.1-8.1v19c-0.6,1.7-8.7,11.3-21.4,11.5
			c-9.7,0.3-12.3-26.3-0.8-42.4L167.7,116.7z"/>
	</g>
</g>
<g opacity="0.7">
	<path fill="#180C26" d="M31.3,0L0,31.2l0.2,65.9l97-97L31.3,0z"/>
</g>
<g>
	<g>
		<path fill="#FFFFFF" d="M19.8,17.4c0-1.3,0.6-1.9,1.9-1.9c5,0,10,0,14.9,0c1.2,0,2.3,0.4,3.2,1.3c1.7,1.7,3.3,3.3,4.9,4.9
			c0.9,0.9,1.4,2.1,1.4,3.4c0,6.4,0,12.8,0,19.2c0,0.3,0,0.4-0.1,0.6c-0.2,0.6-0.6,1-1.2,1.1c-0.3,0.1-23.1,0.1-23.2,0.1
			c-1.1-0.1-1.8-0.7-1.8-1.8C19.8,39.8,19.8,21.8,19.8,17.4z M35.2,17.6c-4.4,0-8.8,0-13.1,0c0,8.8,0,17.5,0,26.3
			c7.3,0,14.5,0,21.8,0c0-5.9,0-11.7,0-17.5c-0.9,0-5.5,0-6.9,0c-1.2,0-1.8-0.7-1.8-1.8C35.2,23.3,35.2,18.8,35.2,17.6z M37.4,24.2
			c2.2,0,4.3,0,6.5,0c-0.1-0.3-0.3-0.6-0.6-0.8c-1.7-1.7-3.4-3.5-5.2-5.2c-0.2-0.2-0.5-0.4-0.8-0.5C37.4,20,37.4,22,37.4,24.2z"/>
	</g>
	<g>
		<path fill="#FFFFFF" d="M32.7,40.3h-6.5c-0.1,0-0.2-0.1-0.2-0.2v-1.6c0-0.1,0.1-0.2,0.2-0.2h6.6c0.1,0,0.2,0.1,0.2,0.2v1.6
			C32.9,40.2,32.9,40.3,32.7,40.3z"/>
	</g>
	<g>
		<path fill="#FFFFFF" d="M32.8,35.9h-6.5c-0.1,0-0.2-0.1-0.2-0.2v-1.6c0-0.1,0.1-0.2,0.2-0.2h6.5c0.1,0,0.2,0.1,0.2,0.2v1.6
			C33,35.8,32.9,35.9,32.8,35.9z"/>
	</g>
	<g>
		<path fill="#FFFFFF" d="M32.4,26.6h-6.2c-0.1,0-0.2-0.1-0.2-0.2v-1.6c0-0.1,0.1-0.2,0.2-0.2h6.2c0.1,0,0.2,0.1,0.2,0.2v1.6
			C32.6,26.6,32.5,26.6,32.4,26.6z"/>
	</g>
	<g>
		<path fill="#FFFFFF" d="M39.6,31.3H26.2c-0.1,0-0.2-0.1-0.2-0.2v-1.6c0-0.1,0.1-0.2,0.2-0.2h13.4c0.1,0,0.2,0.1,0.2,0.2v1.6
			C39.8,31.2,39.7,31.3,39.6,31.3z"/>
	</g>
	<g>
		<rect x="35.4" y="35.2" fill="#FFFFFF" width="4.4" height="4.5"/>
	</g>
</g>
</svg>
